%TF.GenerationSoftware,KiCad,Pcbnew,(5.1.7)-1*%
%TF.CreationDate,2021-09-28T11:43:39+01:00*%
%TF.ProjectId,vDrive-Sound-Board,76447269-7665-42d5-936f-756e642d426f,rev?*%
%TF.SameCoordinates,Original*%
%TF.FileFunction,Legend,Bot*%
%TF.FilePolarity,Positive*%
%FSLAX46Y46*%
G04 Gerber Fmt 4.6, Leading zero omitted, Abs format (unit mm)*
G04 Created by KiCad (PCBNEW (5.1.7)-1) date 2021-09-28 11:43:39*
%MOMM*%
%LPD*%
G01*
G04 APERTURE LIST*
%ADD10C,0.150000*%
G04 APERTURE END LIST*
D10*
X121452380Y-61109523D02*
X122452380Y-61442857D01*
X121452380Y-61776190D01*
X122404761Y-62490476D02*
X122452380Y-62395238D01*
X122452380Y-62204761D01*
X122404761Y-62109523D01*
X122309523Y-62061904D01*
X121928571Y-62061904D01*
X121833333Y-62109523D01*
X121785714Y-62204761D01*
X121785714Y-62395238D01*
X121833333Y-62490476D01*
X121928571Y-62538095D01*
X122023809Y-62538095D01*
X122119047Y-62061904D01*
X122452380Y-62966666D02*
X121785714Y-62966666D01*
X121976190Y-62966666D02*
X121880952Y-63014285D01*
X121833333Y-63061904D01*
X121785714Y-63157142D01*
X121785714Y-63252380D01*
X122404761Y-63538095D02*
X122452380Y-63633333D01*
X122452380Y-63823809D01*
X122404761Y-63919047D01*
X122309523Y-63966666D01*
X122261904Y-63966666D01*
X122166666Y-63919047D01*
X122119047Y-63823809D01*
X122119047Y-63680952D01*
X122071428Y-63585714D01*
X121976190Y-63538095D01*
X121928571Y-63538095D01*
X121833333Y-63585714D01*
X121785714Y-63680952D01*
X121785714Y-63823809D01*
X121833333Y-63919047D01*
X122452380Y-64395238D02*
X121785714Y-64395238D01*
X121452380Y-64395238D02*
X121500000Y-64347619D01*
X121547619Y-64395238D01*
X121500000Y-64442857D01*
X121452380Y-64395238D01*
X121547619Y-64395238D01*
X122452380Y-65014285D02*
X122404761Y-64919047D01*
X122357142Y-64871428D01*
X122261904Y-64823809D01*
X121976190Y-64823809D01*
X121880952Y-64871428D01*
X121833333Y-64919047D01*
X121785714Y-65014285D01*
X121785714Y-65157142D01*
X121833333Y-65252380D01*
X121880952Y-65300000D01*
X121976190Y-65347619D01*
X122261904Y-65347619D01*
X122357142Y-65300000D01*
X122404761Y-65252380D01*
X122452380Y-65157142D01*
X122452380Y-65014285D01*
X121785714Y-65776190D02*
X122452380Y-65776190D01*
X121880952Y-65776190D02*
X121833333Y-65823809D01*
X121785714Y-65919047D01*
X121785714Y-66061904D01*
X121833333Y-66157142D01*
X121928571Y-66204761D01*
X122452380Y-66204761D01*
X121547619Y-67395238D02*
X121500000Y-67442857D01*
X121452380Y-67538095D01*
X121452380Y-67776190D01*
X121500000Y-67871428D01*
X121547619Y-67919047D01*
X121642857Y-67966666D01*
X121738095Y-67966666D01*
X121880952Y-67919047D01*
X122452380Y-67347619D01*
X122452380Y-67966666D01*
X122357142Y-68395238D02*
X122404761Y-68442857D01*
X122452380Y-68395238D01*
X122404761Y-68347619D01*
X122357142Y-68395238D01*
X122452380Y-68395238D01*
X121452380Y-69061904D02*
X121452380Y-69157142D01*
X121500000Y-69252380D01*
X121547619Y-69300000D01*
X121642857Y-69347619D01*
X121833333Y-69395238D01*
X122071428Y-69395238D01*
X122261904Y-69347619D01*
X122357142Y-69300000D01*
X122404761Y-69252380D01*
X122452380Y-69157142D01*
X122452380Y-69061904D01*
X122404761Y-68966666D01*
X122357142Y-68919047D01*
X122261904Y-68871428D01*
X122071428Y-68823809D01*
X121833333Y-68823809D01*
X121642857Y-68871428D01*
X121547619Y-68919047D01*
X121500000Y-68966666D01*
X121452380Y-69061904D01*
X119408333Y-60776190D02*
X119360714Y-60728571D01*
X119217857Y-60633333D01*
X119122619Y-60585714D01*
X118979761Y-60538095D01*
X118741666Y-60490476D01*
X118551190Y-60490476D01*
X118313095Y-60538095D01*
X118170238Y-60585714D01*
X118075000Y-60633333D01*
X117932142Y-60728571D01*
X117884523Y-60776190D01*
X118979761Y-61585714D02*
X119027380Y-61490476D01*
X119027380Y-61300000D01*
X118979761Y-61204761D01*
X118932142Y-61157142D01*
X118836904Y-61109523D01*
X118551190Y-61109523D01*
X118455952Y-61157142D01*
X118408333Y-61204761D01*
X118360714Y-61300000D01*
X118360714Y-61490476D01*
X118408333Y-61585714D01*
X119408333Y-61919047D02*
X119360714Y-61966666D01*
X119217857Y-62061904D01*
X119122619Y-62109523D01*
X118979761Y-62157142D01*
X118741666Y-62204761D01*
X118551190Y-62204761D01*
X118313095Y-62157142D01*
X118170238Y-62109523D01*
X118075000Y-62061904D01*
X117932142Y-61966666D01*
X117884523Y-61919047D01*
X118979761Y-63395238D02*
X119027380Y-63538095D01*
X119027380Y-63776190D01*
X118979761Y-63871428D01*
X118932142Y-63919047D01*
X118836904Y-63966666D01*
X118741666Y-63966666D01*
X118646428Y-63919047D01*
X118598809Y-63871428D01*
X118551190Y-63776190D01*
X118503571Y-63585714D01*
X118455952Y-63490476D01*
X118408333Y-63442857D01*
X118313095Y-63395238D01*
X118217857Y-63395238D01*
X118122619Y-63442857D01*
X118075000Y-63490476D01*
X118027380Y-63585714D01*
X118027380Y-63823809D01*
X118075000Y-63966666D01*
X118932142Y-64395238D02*
X118979761Y-64442857D01*
X119027380Y-64395238D01*
X118979761Y-64347619D01*
X118932142Y-64395238D01*
X119027380Y-64395238D01*
X119027380Y-65442857D02*
X118551190Y-65109523D01*
X119027380Y-64871428D02*
X118027380Y-64871428D01*
X118027380Y-65252380D01*
X118075000Y-65347619D01*
X118122619Y-65395238D01*
X118217857Y-65442857D01*
X118360714Y-65442857D01*
X118455952Y-65395238D01*
X118503571Y-65347619D01*
X118551190Y-65252380D01*
X118551190Y-64871428D01*
X118932142Y-65871428D02*
X118979761Y-65919047D01*
X119027380Y-65871428D01*
X118979761Y-65823809D01*
X118932142Y-65871428D01*
X119027380Y-65871428D01*
X118027380Y-66347619D02*
X118836904Y-66347619D01*
X118932142Y-66395238D01*
X118979761Y-66442857D01*
X119027380Y-66538095D01*
X119027380Y-66728571D01*
X118979761Y-66823809D01*
X118932142Y-66871428D01*
X118836904Y-66919047D01*
X118027380Y-66919047D01*
X118979761Y-67347619D02*
X119027380Y-67442857D01*
X119027380Y-67633333D01*
X118979761Y-67728571D01*
X118884523Y-67776190D01*
X118836904Y-67776190D01*
X118741666Y-67728571D01*
X118694047Y-67633333D01*
X118694047Y-67490476D01*
X118646428Y-67395238D01*
X118551190Y-67347619D01*
X118503571Y-67347619D01*
X118408333Y-67395238D01*
X118360714Y-67490476D01*
X118360714Y-67633333D01*
X118408333Y-67728571D01*
X119027380Y-68204761D02*
X118027380Y-68204761D01*
X119027380Y-68633333D02*
X118503571Y-68633333D01*
X118408333Y-68585714D01*
X118360714Y-68490476D01*
X118360714Y-68347619D01*
X118408333Y-68252380D01*
X118455952Y-68204761D01*
X118979761Y-69490476D02*
X119027380Y-69395238D01*
X119027380Y-69204761D01*
X118979761Y-69109523D01*
X118884523Y-69061904D01*
X118503571Y-69061904D01*
X118408333Y-69109523D01*
X118360714Y-69204761D01*
X118360714Y-69395238D01*
X118408333Y-69490476D01*
X118503571Y-69538095D01*
X118598809Y-69538095D01*
X118694047Y-69061904D01*
X119027380Y-69966666D02*
X118360714Y-69966666D01*
X118551190Y-69966666D02*
X118455952Y-70014285D01*
X118408333Y-70061904D01*
X118360714Y-70157142D01*
X118360714Y-70252380D01*
X119772619Y-62109523D02*
X119725000Y-62157142D01*
X119677380Y-62252380D01*
X119677380Y-62490476D01*
X119725000Y-62585714D01*
X119772619Y-62633333D01*
X119867857Y-62680952D01*
X119963095Y-62680952D01*
X120105952Y-62633333D01*
X120677380Y-62061904D01*
X120677380Y-62680952D01*
X119677380Y-63300000D02*
X119677380Y-63395238D01*
X119725000Y-63490476D01*
X119772619Y-63538095D01*
X119867857Y-63585714D01*
X120058333Y-63633333D01*
X120296428Y-63633333D01*
X120486904Y-63585714D01*
X120582142Y-63538095D01*
X120629761Y-63490476D01*
X120677380Y-63395238D01*
X120677380Y-63300000D01*
X120629761Y-63204761D01*
X120582142Y-63157142D01*
X120486904Y-63109523D01*
X120296428Y-63061904D01*
X120058333Y-63061904D01*
X119867857Y-63109523D01*
X119772619Y-63157142D01*
X119725000Y-63204761D01*
X119677380Y-63300000D01*
X119772619Y-64014285D02*
X119725000Y-64061904D01*
X119677380Y-64157142D01*
X119677380Y-64395238D01*
X119725000Y-64490476D01*
X119772619Y-64538095D01*
X119867857Y-64585714D01*
X119963095Y-64585714D01*
X120105952Y-64538095D01*
X120677380Y-63966666D01*
X120677380Y-64585714D01*
X119677380Y-65204761D02*
X119677380Y-65300000D01*
X119725000Y-65395238D01*
X119772619Y-65442857D01*
X119867857Y-65490476D01*
X120058333Y-65538095D01*
X120296428Y-65538095D01*
X120486904Y-65490476D01*
X120582142Y-65442857D01*
X120629761Y-65395238D01*
X120677380Y-65300000D01*
X120677380Y-65204761D01*
X120629761Y-65109523D01*
X120582142Y-65061904D01*
X120486904Y-65014285D01*
X120296428Y-64966666D01*
X120058333Y-64966666D01*
X119867857Y-65014285D01*
X119772619Y-65061904D01*
X119725000Y-65109523D01*
X119677380Y-65204761D01*
X119629761Y-66680952D02*
X120915476Y-65823809D01*
X119772619Y-66966666D02*
X119725000Y-67014285D01*
X119677380Y-67109523D01*
X119677380Y-67347619D01*
X119725000Y-67442857D01*
X119772619Y-67490476D01*
X119867857Y-67538095D01*
X119963095Y-67538095D01*
X120105952Y-67490476D01*
X120677380Y-66919047D01*
X120677380Y-67538095D01*
X120677380Y-68490476D02*
X120677380Y-67919047D01*
X120677380Y-68204761D02*
X119677380Y-68204761D01*
X119820238Y-68109523D01*
X119915476Y-68014285D01*
X119963095Y-67919047D01*
X124685714Y-43390476D02*
X125352380Y-43628571D01*
X124685714Y-43866666D01*
X125352380Y-44247619D02*
X124352380Y-44247619D01*
X124352380Y-44485714D01*
X124400000Y-44628571D01*
X124495238Y-44723809D01*
X124590476Y-44771428D01*
X124780952Y-44819047D01*
X124923809Y-44819047D01*
X125114285Y-44771428D01*
X125209523Y-44723809D01*
X125304761Y-44628571D01*
X125352380Y-44485714D01*
X125352380Y-44247619D01*
X125352380Y-45247619D02*
X124685714Y-45247619D01*
X124876190Y-45247619D02*
X124780952Y-45295238D01*
X124733333Y-45342857D01*
X124685714Y-45438095D01*
X124685714Y-45533333D01*
X125352380Y-45866666D02*
X124685714Y-45866666D01*
X124352380Y-45866666D02*
X124400000Y-45819047D01*
X124447619Y-45866666D01*
X124400000Y-45914285D01*
X124352380Y-45866666D01*
X124447619Y-45866666D01*
X124685714Y-46247619D02*
X125352380Y-46485714D01*
X124685714Y-46723809D01*
X125304761Y-47485714D02*
X125352380Y-47390476D01*
X125352380Y-47200000D01*
X125304761Y-47104761D01*
X125209523Y-47057142D01*
X124828571Y-47057142D01*
X124733333Y-47104761D01*
X124685714Y-47200000D01*
X124685714Y-47390476D01*
X124733333Y-47485714D01*
X124828571Y-47533333D01*
X124923809Y-47533333D01*
X125019047Y-47057142D01*
X125304761Y-48676190D02*
X125352380Y-48819047D01*
X125352380Y-49057142D01*
X125304761Y-49152380D01*
X125257142Y-49200000D01*
X125161904Y-49247619D01*
X125066666Y-49247619D01*
X124971428Y-49200000D01*
X124923809Y-49152380D01*
X124876190Y-49057142D01*
X124828571Y-48866666D01*
X124780952Y-48771428D01*
X124733333Y-48723809D01*
X124638095Y-48676190D01*
X124542857Y-48676190D01*
X124447619Y-48723809D01*
X124400000Y-48771428D01*
X124352380Y-48866666D01*
X124352380Y-49104761D01*
X124400000Y-49247619D01*
X125352380Y-49819047D02*
X125304761Y-49723809D01*
X125257142Y-49676190D01*
X125161904Y-49628571D01*
X124876190Y-49628571D01*
X124780952Y-49676190D01*
X124733333Y-49723809D01*
X124685714Y-49819047D01*
X124685714Y-49961904D01*
X124733333Y-50057142D01*
X124780952Y-50104761D01*
X124876190Y-50152380D01*
X125161904Y-50152380D01*
X125257142Y-50104761D01*
X125304761Y-50057142D01*
X125352380Y-49961904D01*
X125352380Y-49819047D01*
X124685714Y-51009523D02*
X125352380Y-51009523D01*
X124685714Y-50580952D02*
X125209523Y-50580952D01*
X125304761Y-50628571D01*
X125352380Y-50723809D01*
X125352380Y-50866666D01*
X125304761Y-50961904D01*
X125257142Y-51009523D01*
X124685714Y-51485714D02*
X125352380Y-51485714D01*
X124780952Y-51485714D02*
X124733333Y-51533333D01*
X124685714Y-51628571D01*
X124685714Y-51771428D01*
X124733333Y-51866666D01*
X124828571Y-51914285D01*
X125352380Y-51914285D01*
X125352380Y-52819047D02*
X124352380Y-52819047D01*
X125304761Y-52819047D02*
X125352380Y-52723809D01*
X125352380Y-52533333D01*
X125304761Y-52438095D01*
X125257142Y-52390476D01*
X125161904Y-52342857D01*
X124876190Y-52342857D01*
X124780952Y-52390476D01*
X124733333Y-52438095D01*
X124685714Y-52533333D01*
X124685714Y-52723809D01*
X124733333Y-52819047D01*
X124828571Y-54390476D02*
X124876190Y-54533333D01*
X124923809Y-54580952D01*
X125019047Y-54628571D01*
X125161904Y-54628571D01*
X125257142Y-54580952D01*
X125304761Y-54533333D01*
X125352380Y-54438095D01*
X125352380Y-54057142D01*
X124352380Y-54057142D01*
X124352380Y-54390476D01*
X124400000Y-54485714D01*
X124447619Y-54533333D01*
X124542857Y-54580952D01*
X124638095Y-54580952D01*
X124733333Y-54533333D01*
X124780952Y-54485714D01*
X124828571Y-54390476D01*
X124828571Y-54057142D01*
X125352380Y-55200000D02*
X125304761Y-55104761D01*
X125257142Y-55057142D01*
X125161904Y-55009523D01*
X124876190Y-55009523D01*
X124780952Y-55057142D01*
X124733333Y-55104761D01*
X124685714Y-55200000D01*
X124685714Y-55342857D01*
X124733333Y-55438095D01*
X124780952Y-55485714D01*
X124876190Y-55533333D01*
X125161904Y-55533333D01*
X125257142Y-55485714D01*
X125304761Y-55438095D01*
X125352380Y-55342857D01*
X125352380Y-55200000D01*
X125352380Y-56390476D02*
X124828571Y-56390476D01*
X124733333Y-56342857D01*
X124685714Y-56247619D01*
X124685714Y-56057142D01*
X124733333Y-55961904D01*
X125304761Y-56390476D02*
X125352380Y-56295238D01*
X125352380Y-56057142D01*
X125304761Y-55961904D01*
X125209523Y-55914285D01*
X125114285Y-55914285D01*
X125019047Y-55961904D01*
X124971428Y-56057142D01*
X124971428Y-56295238D01*
X124923809Y-56390476D01*
X125352380Y-56866666D02*
X124685714Y-56866666D01*
X124876190Y-56866666D02*
X124780952Y-56914285D01*
X124733333Y-56961904D01*
X124685714Y-57057142D01*
X124685714Y-57152380D01*
X125352380Y-57914285D02*
X124352380Y-57914285D01*
X125304761Y-57914285D02*
X125352380Y-57819047D01*
X125352380Y-57628571D01*
X125304761Y-57533333D01*
X125257142Y-57485714D01*
X125161904Y-57438095D01*
X124876190Y-57438095D01*
X124780952Y-57485714D01*
X124733333Y-57533333D01*
X124685714Y-57628571D01*
X124685714Y-57819047D01*
X124733333Y-57914285D01*
M02*
