%FSLAX45Y45*%
G04 Gerber Fmt 4.5, Leading zero omitted, Abs format (unit mm)*
G04 Created by KiCad (PCBNEW (5.1.7)-1) date 2021-09-28 11:43:36*
%MOMM*%
%LPD*%
G01*
G04 APERTURE LIST*
%TA.AperFunction,Profile*%
%ADD10C,0.050000*%
%TD*%
%ADD11C,0.200000*%
%ADD12C,0.300000*%
G04 APERTURE END LIST*
D10*
X11000000Y-4200000D02*
X11000000Y-7300000D01*
X12600000Y-4200000D02*
X11000000Y-4200000D01*
X12600000Y-7300000D02*
X12600000Y-4200000D01*
X11000000Y-7300000D02*
X12600000Y-7300000D01*
D11*
X11282500Y-4728500D02*
X11357500Y-4803500D01*
X11357500Y-4728500D02*
X11282500Y-4803500D01*
X11282500Y-4855500D02*
X11357500Y-4930500D01*
X11357500Y-4855500D02*
X11282500Y-4930500D01*
X11282500Y-4982500D02*
X11357500Y-5057500D01*
X11357500Y-4982500D02*
X11282500Y-5057500D01*
X11670000Y-6160000D02*
G75*
G03*
X11670000Y-6160000I-40000J0D01*
G01*
X11670000Y-6414000D02*
G75*
G03*
X11670000Y-6414000I-40000J0D01*
G01*
X11670000Y-6668000D02*
G75*
G03*
X11670000Y-6668000I-40000J0D01*
G01*
X11670000Y-6922000D02*
G75*
G03*
X11670000Y-6922000I-40000J0D01*
G01*
X12432000Y-6160000D02*
G75*
G03*
X12432000Y-6160000I-40000J0D01*
G01*
X12432000Y-6414000D02*
G75*
G03*
X12432000Y-6414000I-40000J0D01*
G01*
X12432000Y-6668000D02*
G75*
G03*
X12432000Y-6668000I-40000J0D01*
G01*
X12432000Y-6922000D02*
G75*
G03*
X12432000Y-6922000I-40000J0D01*
G01*
X12020000Y-5310000D02*
G75*
G03*
X12020000Y-5310000I-40000J0D01*
G01*
X12270000Y-5310000D02*
G75*
G03*
X12270000Y-5310000I-40000J0D01*
G01*
X11250000Y-6800000D02*
X11250000Y-6900000D01*
X11200000Y-6850000D02*
X11300000Y-6850000D01*
X11900000Y-4370000D02*
X11900000Y-4470000D01*
X11850000Y-4420000D02*
X11950000Y-4420000D01*
X12154000Y-4370000D02*
X12154000Y-4470000D01*
X12104000Y-4420000D02*
X12204000Y-4420000D01*
X11250000Y-5666000D02*
X11250000Y-5766000D01*
X11200000Y-5716000D02*
X11300000Y-5716000D01*
X11250000Y-5920000D02*
X11250000Y-6020000D01*
X11200000Y-5970000D02*
X11300000Y-5970000D01*
D12*
X11283928Y-7768214D02*
X11283928Y-7468214D01*
X11355357Y-7468214D01*
X11398214Y-7482500D01*
X11426786Y-7511071D01*
X11441071Y-7539643D01*
X11455357Y-7596786D01*
X11455357Y-7639643D01*
X11441071Y-7696786D01*
X11426786Y-7725357D01*
X11398214Y-7753929D01*
X11355357Y-7768214D01*
X11283928Y-7768214D01*
X11583928Y-7768214D02*
X11583928Y-7568214D01*
X11583928Y-7625357D02*
X11598214Y-7596786D01*
X11612500Y-7582500D01*
X11641071Y-7568214D01*
X11669643Y-7568214D01*
X11769643Y-7768214D02*
X11769643Y-7568214D01*
X11769643Y-7468214D02*
X11755357Y-7482500D01*
X11769643Y-7496786D01*
X11783928Y-7482500D01*
X11769643Y-7468214D01*
X11769643Y-7496786D01*
X11955357Y-7768214D02*
X11926786Y-7753929D01*
X11912500Y-7725357D01*
X11912500Y-7468214D01*
X12112500Y-7768214D02*
X12083928Y-7753929D01*
X12069643Y-7725357D01*
X12069643Y-7468214D01*
X12455357Y-7768214D02*
X12455357Y-7468214D01*
X12555357Y-7682500D01*
X12655357Y-7468214D01*
X12655357Y-7768214D01*
X12926786Y-7768214D02*
X12926786Y-7611071D01*
X12912500Y-7582500D01*
X12883928Y-7568214D01*
X12826786Y-7568214D01*
X12798214Y-7582500D01*
X12926786Y-7753929D02*
X12898214Y-7768214D01*
X12826786Y-7768214D01*
X12798214Y-7753929D01*
X12783928Y-7725357D01*
X12783928Y-7696786D01*
X12798214Y-7668214D01*
X12826786Y-7653929D01*
X12898214Y-7653929D01*
X12926786Y-7639643D01*
X13069643Y-7568214D02*
X13069643Y-7868214D01*
X13069643Y-7582500D02*
X13098214Y-7568214D01*
X13155357Y-7568214D01*
X13183928Y-7582500D01*
X13198214Y-7596786D01*
X13212500Y-7625357D01*
X13212500Y-7711071D01*
X13198214Y-7739643D01*
X13183928Y-7753929D01*
X13155357Y-7768214D01*
X13098214Y-7768214D01*
X13069643Y-7753929D01*
X13341071Y-7739643D02*
X13355357Y-7753929D01*
X13341071Y-7768214D01*
X13326786Y-7753929D01*
X13341071Y-7739643D01*
X13341071Y-7768214D01*
X13341071Y-7582500D02*
X13355357Y-7596786D01*
X13341071Y-7611071D01*
X13326786Y-7596786D01*
X13341071Y-7582500D01*
X13341071Y-7611071D01*
X10922500Y-8225000D02*
X10997500Y-8300000D01*
X10997500Y-8225000D02*
X10922500Y-8300000D01*
X11341071Y-8098214D02*
X11369643Y-8098214D01*
X11398214Y-8112500D01*
X11412500Y-8126786D01*
X11426786Y-8155357D01*
X11441071Y-8212500D01*
X11441071Y-8283929D01*
X11426786Y-8341071D01*
X11412500Y-8369643D01*
X11398214Y-8383929D01*
X11369643Y-8398214D01*
X11341071Y-8398214D01*
X11312500Y-8383929D01*
X11298214Y-8369643D01*
X11283928Y-8341071D01*
X11269643Y-8283929D01*
X11269643Y-8212500D01*
X11283928Y-8155357D01*
X11298214Y-8126786D01*
X11312500Y-8112500D01*
X11341071Y-8098214D01*
X11569643Y-8369643D02*
X11583928Y-8383929D01*
X11569643Y-8398214D01*
X11555357Y-8383929D01*
X11569643Y-8369643D01*
X11569643Y-8398214D01*
X11683928Y-8098214D02*
X11883928Y-8098214D01*
X11755357Y-8398214D01*
X12141071Y-8098214D02*
X11998214Y-8098214D01*
X11983928Y-8241071D01*
X11998214Y-8226786D01*
X12026786Y-8212500D01*
X12098214Y-8212500D01*
X12126786Y-8226786D01*
X12141071Y-8241071D01*
X12155357Y-8269643D01*
X12155357Y-8341071D01*
X12141071Y-8369643D01*
X12126786Y-8383929D01*
X12098214Y-8398214D01*
X12026786Y-8398214D01*
X11998214Y-8383929D01*
X11983928Y-8369643D01*
X12283928Y-8398214D02*
X12283928Y-8198214D01*
X12283928Y-8226786D02*
X12298214Y-8212500D01*
X12326786Y-8198214D01*
X12369643Y-8198214D01*
X12398214Y-8212500D01*
X12412500Y-8241071D01*
X12412500Y-8398214D01*
X12412500Y-8241071D02*
X12426786Y-8212500D01*
X12455357Y-8198214D01*
X12498214Y-8198214D01*
X12526786Y-8212500D01*
X12541071Y-8241071D01*
X12541071Y-8398214D01*
X12683928Y-8398214D02*
X12683928Y-8198214D01*
X12683928Y-8226786D02*
X12698214Y-8212500D01*
X12726786Y-8198214D01*
X12769643Y-8198214D01*
X12798214Y-8212500D01*
X12812500Y-8241071D01*
X12812500Y-8398214D01*
X12812500Y-8241071D02*
X12826786Y-8212500D01*
X12855357Y-8198214D01*
X12898214Y-8198214D01*
X12926786Y-8212500D01*
X12941071Y-8241071D01*
X12941071Y-8398214D01*
X13526786Y-8083929D02*
X13269643Y-8469643D01*
X13912500Y-8098214D02*
X13941071Y-8098214D01*
X13969643Y-8112500D01*
X13983928Y-8126786D01*
X13998214Y-8155357D01*
X14012500Y-8212500D01*
X14012500Y-8283929D01*
X13998214Y-8341071D01*
X13983928Y-8369643D01*
X13969643Y-8383929D01*
X13941071Y-8398214D01*
X13912500Y-8398214D01*
X13883928Y-8383929D01*
X13869643Y-8369643D01*
X13855357Y-8341071D01*
X13841071Y-8283929D01*
X13841071Y-8212500D01*
X13855357Y-8155357D01*
X13869643Y-8126786D01*
X13883928Y-8112500D01*
X13912500Y-8098214D01*
X14141071Y-8369643D02*
X14155357Y-8383929D01*
X14141071Y-8398214D01*
X14126786Y-8383929D01*
X14141071Y-8369643D01*
X14141071Y-8398214D01*
X14341071Y-8098214D02*
X14369643Y-8098214D01*
X14398214Y-8112500D01*
X14412500Y-8126786D01*
X14426786Y-8155357D01*
X14441071Y-8212500D01*
X14441071Y-8283929D01*
X14426786Y-8341071D01*
X14412500Y-8369643D01*
X14398214Y-8383929D01*
X14369643Y-8398214D01*
X14341071Y-8398214D01*
X14312500Y-8383929D01*
X14298214Y-8369643D01*
X14283928Y-8341071D01*
X14269643Y-8283929D01*
X14269643Y-8212500D01*
X14283928Y-8155357D01*
X14298214Y-8126786D01*
X14312500Y-8112500D01*
X14341071Y-8098214D01*
X14541071Y-8098214D02*
X14726786Y-8098214D01*
X14626786Y-8212500D01*
X14669643Y-8212500D01*
X14698214Y-8226786D01*
X14712500Y-8241071D01*
X14726786Y-8269643D01*
X14726786Y-8341071D01*
X14712500Y-8369643D01*
X14698214Y-8383929D01*
X14669643Y-8398214D01*
X14583928Y-8398214D01*
X14555357Y-8383929D01*
X14541071Y-8369643D01*
X14912500Y-8098214D02*
X14941071Y-8098214D01*
X14969643Y-8112500D01*
X14983928Y-8126786D01*
X14998214Y-8155357D01*
X15012500Y-8212500D01*
X15012500Y-8283929D01*
X14998214Y-8341071D01*
X14983928Y-8369643D01*
X14969643Y-8383929D01*
X14941071Y-8398214D01*
X14912500Y-8398214D01*
X14883928Y-8383929D01*
X14869643Y-8369643D01*
X14855357Y-8341071D01*
X14841071Y-8283929D01*
X14841071Y-8212500D01*
X14855357Y-8155357D01*
X14869643Y-8126786D01*
X14883928Y-8112500D01*
X14912500Y-8098214D01*
X15126786Y-8098214D02*
X15126786Y-8155357D01*
X15241071Y-8098214D02*
X15241071Y-8155357D01*
X15683928Y-8512500D02*
X15669643Y-8498214D01*
X15641071Y-8455357D01*
X15626786Y-8426786D01*
X15612500Y-8383929D01*
X15598214Y-8312500D01*
X15598214Y-8255357D01*
X15612500Y-8183929D01*
X15626786Y-8141071D01*
X15641071Y-8112500D01*
X15669643Y-8069643D01*
X15683928Y-8055357D01*
X15769643Y-8098214D02*
X15955357Y-8098214D01*
X15855357Y-8212500D01*
X15898214Y-8212500D01*
X15926786Y-8226786D01*
X15941071Y-8241071D01*
X15955357Y-8269643D01*
X15955357Y-8341071D01*
X15941071Y-8369643D01*
X15926786Y-8383929D01*
X15898214Y-8398214D01*
X15812500Y-8398214D01*
X15783928Y-8383929D01*
X15769643Y-8369643D01*
X16312500Y-8398214D02*
X16312500Y-8098214D01*
X16441071Y-8398214D02*
X16441071Y-8241071D01*
X16426786Y-8212500D01*
X16398214Y-8198214D01*
X16355357Y-8198214D01*
X16326786Y-8212500D01*
X16312500Y-8226786D01*
X16626786Y-8398214D02*
X16598214Y-8383929D01*
X16583928Y-8369643D01*
X16569643Y-8341071D01*
X16569643Y-8255357D01*
X16583928Y-8226786D01*
X16598214Y-8212500D01*
X16626786Y-8198214D01*
X16669643Y-8198214D01*
X16698214Y-8212500D01*
X16712500Y-8226786D01*
X16726786Y-8255357D01*
X16726786Y-8341071D01*
X16712500Y-8369643D01*
X16698214Y-8383929D01*
X16669643Y-8398214D01*
X16626786Y-8398214D01*
X16898214Y-8398214D02*
X16869643Y-8383929D01*
X16855357Y-8355357D01*
X16855357Y-8098214D01*
X17126786Y-8383929D02*
X17098214Y-8398214D01*
X17041071Y-8398214D01*
X17012500Y-8383929D01*
X16998214Y-8355357D01*
X16998214Y-8241071D01*
X17012500Y-8212500D01*
X17041071Y-8198214D01*
X17098214Y-8198214D01*
X17126786Y-8212500D01*
X17141071Y-8241071D01*
X17141071Y-8269643D01*
X16998214Y-8298214D01*
X17255357Y-8383929D02*
X17283928Y-8398214D01*
X17341071Y-8398214D01*
X17369643Y-8383929D01*
X17383928Y-8355357D01*
X17383928Y-8341071D01*
X17369643Y-8312500D01*
X17341071Y-8298214D01*
X17298214Y-8298214D01*
X17269643Y-8283929D01*
X17255357Y-8255357D01*
X17255357Y-8241071D01*
X17269643Y-8212500D01*
X17298214Y-8198214D01*
X17341071Y-8198214D01*
X17369643Y-8212500D01*
X17483928Y-8512500D02*
X17498214Y-8498214D01*
X17526786Y-8455357D01*
X17541071Y-8426786D01*
X17555357Y-8383929D01*
X17569643Y-8312500D01*
X17569643Y-8255357D01*
X17555357Y-8183929D01*
X17541071Y-8141071D01*
X17526786Y-8112500D01*
X17498214Y-8069643D01*
X17483928Y-8055357D01*
X10997500Y-8658500D02*
G75*
G03*
X10997500Y-8658500I-40000J0D01*
G01*
X11341071Y-8494214D02*
X11369643Y-8494214D01*
X11398214Y-8508500D01*
X11412500Y-8522786D01*
X11426786Y-8551357D01*
X11441071Y-8608500D01*
X11441071Y-8679929D01*
X11426786Y-8737072D01*
X11412500Y-8765643D01*
X11398214Y-8779929D01*
X11369643Y-8794214D01*
X11341071Y-8794214D01*
X11312500Y-8779929D01*
X11298214Y-8765643D01*
X11283928Y-8737072D01*
X11269643Y-8679929D01*
X11269643Y-8608500D01*
X11283928Y-8551357D01*
X11298214Y-8522786D01*
X11312500Y-8508500D01*
X11341071Y-8494214D01*
X11569643Y-8765643D02*
X11583928Y-8779929D01*
X11569643Y-8794214D01*
X11555357Y-8779929D01*
X11569643Y-8765643D01*
X11569643Y-8794214D01*
X11755357Y-8622786D02*
X11726786Y-8608500D01*
X11712500Y-8594214D01*
X11698214Y-8565643D01*
X11698214Y-8551357D01*
X11712500Y-8522786D01*
X11726786Y-8508500D01*
X11755357Y-8494214D01*
X11812500Y-8494214D01*
X11841071Y-8508500D01*
X11855357Y-8522786D01*
X11869643Y-8551357D01*
X11869643Y-8565643D01*
X11855357Y-8594214D01*
X11841071Y-8608500D01*
X11812500Y-8622786D01*
X11755357Y-8622786D01*
X11726786Y-8637072D01*
X11712500Y-8651357D01*
X11698214Y-8679929D01*
X11698214Y-8737072D01*
X11712500Y-8765643D01*
X11726786Y-8779929D01*
X11755357Y-8794214D01*
X11812500Y-8794214D01*
X11841071Y-8779929D01*
X11855357Y-8765643D01*
X11869643Y-8737072D01*
X11869643Y-8679929D01*
X11855357Y-8651357D01*
X11841071Y-8637072D01*
X11812500Y-8622786D01*
X12055357Y-8494214D02*
X12083928Y-8494214D01*
X12112500Y-8508500D01*
X12126786Y-8522786D01*
X12141071Y-8551357D01*
X12155357Y-8608500D01*
X12155357Y-8679929D01*
X12141071Y-8737072D01*
X12126786Y-8765643D01*
X12112500Y-8779929D01*
X12083928Y-8794214D01*
X12055357Y-8794214D01*
X12026786Y-8779929D01*
X12012500Y-8765643D01*
X11998214Y-8737072D01*
X11983928Y-8679929D01*
X11983928Y-8608500D01*
X11998214Y-8551357D01*
X12012500Y-8522786D01*
X12026786Y-8508500D01*
X12055357Y-8494214D01*
X12283928Y-8794214D02*
X12283928Y-8594214D01*
X12283928Y-8622786D02*
X12298214Y-8608500D01*
X12326786Y-8594214D01*
X12369643Y-8594214D01*
X12398214Y-8608500D01*
X12412500Y-8637072D01*
X12412500Y-8794214D01*
X12412500Y-8637072D02*
X12426786Y-8608500D01*
X12455357Y-8594214D01*
X12498214Y-8594214D01*
X12526786Y-8608500D01*
X12541071Y-8637072D01*
X12541071Y-8794214D01*
X12683928Y-8794214D02*
X12683928Y-8594214D01*
X12683928Y-8622786D02*
X12698214Y-8608500D01*
X12726786Y-8594214D01*
X12769643Y-8594214D01*
X12798214Y-8608500D01*
X12812500Y-8637072D01*
X12812500Y-8794214D01*
X12812500Y-8637072D02*
X12826786Y-8608500D01*
X12855357Y-8594214D01*
X12898214Y-8594214D01*
X12926786Y-8608500D01*
X12941071Y-8637072D01*
X12941071Y-8794214D01*
X13526786Y-8479929D02*
X13269643Y-8865643D01*
X13912500Y-8494214D02*
X13941071Y-8494214D01*
X13969643Y-8508500D01*
X13983928Y-8522786D01*
X13998214Y-8551357D01*
X14012500Y-8608500D01*
X14012500Y-8679929D01*
X13998214Y-8737072D01*
X13983928Y-8765643D01*
X13969643Y-8779929D01*
X13941071Y-8794214D01*
X13912500Y-8794214D01*
X13883928Y-8779929D01*
X13869643Y-8765643D01*
X13855357Y-8737072D01*
X13841071Y-8679929D01*
X13841071Y-8608500D01*
X13855357Y-8551357D01*
X13869643Y-8522786D01*
X13883928Y-8508500D01*
X13912500Y-8494214D01*
X14141071Y-8765643D02*
X14155357Y-8779929D01*
X14141071Y-8794214D01*
X14126786Y-8779929D01*
X14141071Y-8765643D01*
X14141071Y-8794214D01*
X14341071Y-8494214D02*
X14369643Y-8494214D01*
X14398214Y-8508500D01*
X14412500Y-8522786D01*
X14426786Y-8551357D01*
X14441071Y-8608500D01*
X14441071Y-8679929D01*
X14426786Y-8737072D01*
X14412500Y-8765643D01*
X14398214Y-8779929D01*
X14369643Y-8794214D01*
X14341071Y-8794214D01*
X14312500Y-8779929D01*
X14298214Y-8765643D01*
X14283928Y-8737072D01*
X14269643Y-8679929D01*
X14269643Y-8608500D01*
X14283928Y-8551357D01*
X14298214Y-8522786D01*
X14312500Y-8508500D01*
X14341071Y-8494214D01*
X14541071Y-8494214D02*
X14726786Y-8494214D01*
X14626786Y-8608500D01*
X14669643Y-8608500D01*
X14698214Y-8622786D01*
X14712500Y-8637072D01*
X14726786Y-8665643D01*
X14726786Y-8737072D01*
X14712500Y-8765643D01*
X14698214Y-8779929D01*
X14669643Y-8794214D01*
X14583928Y-8794214D01*
X14555357Y-8779929D01*
X14541071Y-8765643D01*
X15012500Y-8794214D02*
X14841071Y-8794214D01*
X14926786Y-8794214D02*
X14926786Y-8494214D01*
X14898214Y-8537072D01*
X14869643Y-8565643D01*
X14841071Y-8579929D01*
X15126786Y-8494214D02*
X15126786Y-8551357D01*
X15241071Y-8494214D02*
X15241071Y-8551357D01*
X15683928Y-8908500D02*
X15669643Y-8894214D01*
X15641071Y-8851357D01*
X15626786Y-8822786D01*
X15612500Y-8779929D01*
X15598214Y-8708500D01*
X15598214Y-8651357D01*
X15612500Y-8579929D01*
X15626786Y-8537072D01*
X15641071Y-8508500D01*
X15669643Y-8465643D01*
X15683928Y-8451357D01*
X15955357Y-8794214D02*
X15783928Y-8794214D01*
X15869643Y-8794214D02*
X15869643Y-8494214D01*
X15841071Y-8537072D01*
X15812500Y-8565643D01*
X15783928Y-8579929D01*
X16141071Y-8494214D02*
X16169643Y-8494214D01*
X16198214Y-8508500D01*
X16212500Y-8522786D01*
X16226786Y-8551357D01*
X16241071Y-8608500D01*
X16241071Y-8679929D01*
X16226786Y-8737072D01*
X16212500Y-8765643D01*
X16198214Y-8779929D01*
X16169643Y-8794214D01*
X16141071Y-8794214D01*
X16112500Y-8779929D01*
X16098214Y-8765643D01*
X16083928Y-8737072D01*
X16069643Y-8679929D01*
X16069643Y-8608500D01*
X16083928Y-8551357D01*
X16098214Y-8522786D01*
X16112500Y-8508500D01*
X16141071Y-8494214D01*
X16598214Y-8794214D02*
X16598214Y-8494214D01*
X16726786Y-8794214D02*
X16726786Y-8637072D01*
X16712500Y-8608500D01*
X16683928Y-8594214D01*
X16641071Y-8594214D01*
X16612500Y-8608500D01*
X16598214Y-8622786D01*
X16912500Y-8794214D02*
X16883928Y-8779929D01*
X16869643Y-8765643D01*
X16855357Y-8737072D01*
X16855357Y-8651357D01*
X16869643Y-8622786D01*
X16883928Y-8608500D01*
X16912500Y-8594214D01*
X16955357Y-8594214D01*
X16983928Y-8608500D01*
X16998214Y-8622786D01*
X17012500Y-8651357D01*
X17012500Y-8737072D01*
X16998214Y-8765643D01*
X16983928Y-8779929D01*
X16955357Y-8794214D01*
X16912500Y-8794214D01*
X17183928Y-8794214D02*
X17155357Y-8779929D01*
X17141071Y-8751357D01*
X17141071Y-8494214D01*
X17412500Y-8779929D02*
X17383928Y-8794214D01*
X17326786Y-8794214D01*
X17298214Y-8779929D01*
X17283928Y-8751357D01*
X17283928Y-8637072D01*
X17298214Y-8608500D01*
X17326786Y-8594214D01*
X17383928Y-8594214D01*
X17412500Y-8608500D01*
X17426786Y-8637072D01*
X17426786Y-8665643D01*
X17283928Y-8694214D01*
X17541071Y-8779929D02*
X17569643Y-8794214D01*
X17626786Y-8794214D01*
X17655357Y-8779929D01*
X17669643Y-8751357D01*
X17669643Y-8737072D01*
X17655357Y-8708500D01*
X17626786Y-8694214D01*
X17583928Y-8694214D01*
X17555357Y-8679929D01*
X17541071Y-8651357D01*
X17541071Y-8637072D01*
X17555357Y-8608500D01*
X17583928Y-8594214D01*
X17626786Y-8594214D01*
X17655357Y-8608500D01*
X17769643Y-8908500D02*
X17783928Y-8894214D01*
X17812500Y-8851357D01*
X17826786Y-8822786D01*
X17841071Y-8779929D01*
X17855357Y-8708500D01*
X17855357Y-8651357D01*
X17841071Y-8579929D01*
X17826786Y-8537072D01*
X17812500Y-8508500D01*
X17783928Y-8465643D01*
X17769643Y-8451357D01*
X10947500Y-9004500D02*
X10947500Y-9104500D01*
X10897500Y-9054500D02*
X10997500Y-9054500D01*
X11441071Y-9190214D02*
X11269643Y-9190214D01*
X11355357Y-9190214D02*
X11355357Y-8890214D01*
X11326786Y-8933072D01*
X11298214Y-8961643D01*
X11269643Y-8975929D01*
X11569643Y-9161643D02*
X11583928Y-9175929D01*
X11569643Y-9190214D01*
X11555357Y-9175929D01*
X11569643Y-9161643D01*
X11569643Y-9190214D01*
X11769643Y-8890214D02*
X11798214Y-8890214D01*
X11826786Y-8904500D01*
X11841071Y-8918786D01*
X11855357Y-8947357D01*
X11869643Y-9004500D01*
X11869643Y-9075929D01*
X11855357Y-9133072D01*
X11841071Y-9161643D01*
X11826786Y-9175929D01*
X11798214Y-9190214D01*
X11769643Y-9190214D01*
X11741071Y-9175929D01*
X11726786Y-9161643D01*
X11712500Y-9133072D01*
X11698214Y-9075929D01*
X11698214Y-9004500D01*
X11712500Y-8947357D01*
X11726786Y-8918786D01*
X11741071Y-8904500D01*
X11769643Y-8890214D01*
X12055357Y-8890214D02*
X12083928Y-8890214D01*
X12112500Y-8904500D01*
X12126786Y-8918786D01*
X12141071Y-8947357D01*
X12155357Y-9004500D01*
X12155357Y-9075929D01*
X12141071Y-9133072D01*
X12126786Y-9161643D01*
X12112500Y-9175929D01*
X12083928Y-9190214D01*
X12055357Y-9190214D01*
X12026786Y-9175929D01*
X12012500Y-9161643D01*
X11998214Y-9133072D01*
X11983928Y-9075929D01*
X11983928Y-9004500D01*
X11998214Y-8947357D01*
X12012500Y-8918786D01*
X12026786Y-8904500D01*
X12055357Y-8890214D01*
X12283928Y-9190214D02*
X12283928Y-8990214D01*
X12283928Y-9018786D02*
X12298214Y-9004500D01*
X12326786Y-8990214D01*
X12369643Y-8990214D01*
X12398214Y-9004500D01*
X12412500Y-9033072D01*
X12412500Y-9190214D01*
X12412500Y-9033072D02*
X12426786Y-9004500D01*
X12455357Y-8990214D01*
X12498214Y-8990214D01*
X12526786Y-9004500D01*
X12541071Y-9033072D01*
X12541071Y-9190214D01*
X12683928Y-9190214D02*
X12683928Y-8990214D01*
X12683928Y-9018786D02*
X12698214Y-9004500D01*
X12726786Y-8990214D01*
X12769643Y-8990214D01*
X12798214Y-9004500D01*
X12812500Y-9033072D01*
X12812500Y-9190214D01*
X12812500Y-9033072D02*
X12826786Y-9004500D01*
X12855357Y-8990214D01*
X12898214Y-8990214D01*
X12926786Y-9004500D01*
X12941071Y-9033072D01*
X12941071Y-9190214D01*
X13526786Y-8875929D02*
X13269643Y-9261643D01*
X13912500Y-8890214D02*
X13941071Y-8890214D01*
X13969643Y-8904500D01*
X13983928Y-8918786D01*
X13998214Y-8947357D01*
X14012500Y-9004500D01*
X14012500Y-9075929D01*
X13998214Y-9133072D01*
X13983928Y-9161643D01*
X13969643Y-9175929D01*
X13941071Y-9190214D01*
X13912500Y-9190214D01*
X13883928Y-9175929D01*
X13869643Y-9161643D01*
X13855357Y-9133072D01*
X13841071Y-9075929D01*
X13841071Y-9004500D01*
X13855357Y-8947357D01*
X13869643Y-8918786D01*
X13883928Y-8904500D01*
X13912500Y-8890214D01*
X14141071Y-9161643D02*
X14155357Y-9175929D01*
X14141071Y-9190214D01*
X14126786Y-9175929D01*
X14141071Y-9161643D01*
X14141071Y-9190214D01*
X14341071Y-8890214D02*
X14369643Y-8890214D01*
X14398214Y-8904500D01*
X14412500Y-8918786D01*
X14426786Y-8947357D01*
X14441071Y-9004500D01*
X14441071Y-9075929D01*
X14426786Y-9133072D01*
X14412500Y-9161643D01*
X14398214Y-9175929D01*
X14369643Y-9190214D01*
X14341071Y-9190214D01*
X14312500Y-9175929D01*
X14298214Y-9161643D01*
X14283928Y-9133072D01*
X14269643Y-9075929D01*
X14269643Y-9004500D01*
X14283928Y-8947357D01*
X14298214Y-8918786D01*
X14312500Y-8904500D01*
X14341071Y-8890214D01*
X14541071Y-8890214D02*
X14726786Y-8890214D01*
X14626786Y-9004500D01*
X14669643Y-9004500D01*
X14698214Y-9018786D01*
X14712500Y-9033072D01*
X14726786Y-9061643D01*
X14726786Y-9133072D01*
X14712500Y-9161643D01*
X14698214Y-9175929D01*
X14669643Y-9190214D01*
X14583928Y-9190214D01*
X14555357Y-9175929D01*
X14541071Y-9161643D01*
X14869643Y-9190214D02*
X14926786Y-9190214D01*
X14955357Y-9175929D01*
X14969643Y-9161643D01*
X14998214Y-9118786D01*
X15012500Y-9061643D01*
X15012500Y-8947357D01*
X14998214Y-8918786D01*
X14983928Y-8904500D01*
X14955357Y-8890214D01*
X14898214Y-8890214D01*
X14869643Y-8904500D01*
X14855357Y-8918786D01*
X14841071Y-8947357D01*
X14841071Y-9018786D01*
X14855357Y-9047357D01*
X14869643Y-9061643D01*
X14898214Y-9075929D01*
X14955357Y-9075929D01*
X14983928Y-9061643D01*
X14998214Y-9047357D01*
X15012500Y-9018786D01*
X15126786Y-8890214D02*
X15126786Y-8947357D01*
X15241071Y-8890214D02*
X15241071Y-8947357D01*
X15683928Y-9304500D02*
X15669643Y-9290214D01*
X15641071Y-9247357D01*
X15626786Y-9218786D01*
X15612500Y-9175929D01*
X15598214Y-9104500D01*
X15598214Y-9047357D01*
X15612500Y-8975929D01*
X15626786Y-8933072D01*
X15641071Y-8904500D01*
X15669643Y-8861643D01*
X15683928Y-8847357D01*
X15941071Y-8890214D02*
X15798214Y-8890214D01*
X15783928Y-9033072D01*
X15798214Y-9018786D01*
X15826786Y-9004500D01*
X15898214Y-9004500D01*
X15926786Y-9018786D01*
X15941071Y-9033072D01*
X15955357Y-9061643D01*
X15955357Y-9133072D01*
X15941071Y-9161643D01*
X15926786Y-9175929D01*
X15898214Y-9190214D01*
X15826786Y-9190214D01*
X15798214Y-9175929D01*
X15783928Y-9161643D01*
X16312500Y-9190214D02*
X16312500Y-8890214D01*
X16441071Y-9190214D02*
X16441071Y-9033072D01*
X16426786Y-9004500D01*
X16398214Y-8990214D01*
X16355357Y-8990214D01*
X16326786Y-9004500D01*
X16312500Y-9018786D01*
X16626786Y-9190214D02*
X16598214Y-9175929D01*
X16583928Y-9161643D01*
X16569643Y-9133072D01*
X16569643Y-9047357D01*
X16583928Y-9018786D01*
X16598214Y-9004500D01*
X16626786Y-8990214D01*
X16669643Y-8990214D01*
X16698214Y-9004500D01*
X16712500Y-9018786D01*
X16726786Y-9047357D01*
X16726786Y-9133072D01*
X16712500Y-9161643D01*
X16698214Y-9175929D01*
X16669643Y-9190214D01*
X16626786Y-9190214D01*
X16898214Y-9190214D02*
X16869643Y-9175929D01*
X16855357Y-9147357D01*
X16855357Y-8890214D01*
X17126786Y-9175929D02*
X17098214Y-9190214D01*
X17041071Y-9190214D01*
X17012500Y-9175929D01*
X16998214Y-9147357D01*
X16998214Y-9033072D01*
X17012500Y-9004500D01*
X17041071Y-8990214D01*
X17098214Y-8990214D01*
X17126786Y-9004500D01*
X17141071Y-9033072D01*
X17141071Y-9061643D01*
X16998214Y-9090214D01*
X17255357Y-9175929D02*
X17283928Y-9190214D01*
X17341071Y-9190214D01*
X17369643Y-9175929D01*
X17383928Y-9147357D01*
X17383928Y-9133072D01*
X17369643Y-9104500D01*
X17341071Y-9090214D01*
X17298214Y-9090214D01*
X17269643Y-9075929D01*
X17255357Y-9047357D01*
X17255357Y-9033072D01*
X17269643Y-9004500D01*
X17298214Y-8990214D01*
X17341071Y-8990214D01*
X17369643Y-9004500D01*
X17483928Y-9304500D02*
X17498214Y-9290214D01*
X17526786Y-9247357D01*
X17541071Y-9218786D01*
X17555357Y-9175929D01*
X17569643Y-9104500D01*
X17569643Y-9047357D01*
X17555357Y-8975929D01*
X17541071Y-8933072D01*
X17526786Y-8904500D01*
X17498214Y-8861643D01*
X17483928Y-8847357D01*
M02*
